<?xml version="1.0" standalone="no"?>
<!DOCTYPE svg PUBLIC "-//W3C//DTD SVG 20010904//EN"
 "http://www.w3.org/TR/2001/REC-SVG-20010904/DTD/svg10.dtd">
<svg version="1.0" xmlns="http://www.w3.org/2000/svg"
 width="392.000000pt" height="128.000000pt" viewBox="0 0 392.000000 128.000000"
 preserveAspectRatio="xMidYMid meet">

<g transform="translate(0.000000,128.000000) scale(0.100000,-0.100000)"
fill="#000000" stroke="none">
<path d="M3915 640 c0 -355 1 -500 2 -323 2 178 2 468 0 645 -1 178 -2 33 -2
-322z"/>
<path d="M660 995 l0 -115 190 0 190 0 0 115 0 115 -190 0 -190 0 0 -115z"/>
<path d="M230 715 l0 -125 190 0 190 0 0 125 0 125 -190 0 -190 0 0 -125z"/>
<path d="M3590 763 c-1 -36 -2 -37 -15 -19 -8 11 -15 15 -15 9 0 -6 7 -16 15
-23 12 -10 16 -8 23 11 8 21 5 59 -4 59 -2 0 -4 -17 -4 -37z"/>
<path d="M3650 786 c0 -9 -7 -16 -15 -16 -10 0 -8 -6 8 -23 24 -25 38 -27 17
-2 -10 11 -10 18 -1 29 8 10 9 16 1 21 -5 3 -10 -1 -10 -9z"/>
<path d="M770 549 l0 -220 48 3 47 3 3 98 3 97 149 0 150 0 0 30 0 30 -150 0
-150 0 0 60 0 60 170 0 170 0 0 30 0 30 -220 0 -220 0 0 -221z"/>
<path d="M1312 738 c3 -32 5 -33 48 -33 43 0 45 1 48 33 l3 32 -51 0 -51 0 3
-32z"/>
<path d="M1870 740 l0 -30 105 0 105 0 0 -190 0 -190 45 0 45 0 0 190 0 189
108 3 107 3 3 28 3 27 -260 0 -261 0 0 -30z"/>
<path d="M3270 550 l0 -220 50 0 49 0 3 66 c2 52 7 69 21 78 16 9 29 0 92 -66
l74 -78 58 0 58 0 -100 100 c-54 54 -97 101 -94 103 2 2 42 30 89 61 l85 56
-60 0 c-57 0 -65 -3 -140 -56 l-80 -55 -3 115 -3 116 -49 0 -50 0 0 -220z"/>
<path d="M3613 713 c9 -2 23 -2 30 0 6 3 -1 5 -18 5 -16 0 -22 -2 -12 -5z"/>
<path d="M1665 645 c-25 -10 -41 -12 -43 -5 -2 5 -26 10 -53 10 l-49 0 0 -160
0 -160 50 0 50 0 0 118 0 119 42 19 c57 25 117 23 140 -6 15 -19 18 -41 18
-136 l0 -114 45 0 45 0 0 120 c0 133 -9 164 -54 187 -43 22 -142 26 -191 8z"/>
<path d="M2597 641 c-29 -15 -37 -16 -37 -5 0 10 -14 14 -50 14 l-50 0 0 -160
0 -160 50 0 50 0 0 115 c0 113 0 115 27 132 16 11 46 18 75 18 47 0 48 0 48
33 0 30 -2 32 -38 32 -21 0 -54 -9 -75 -19z"/>
<path d="M2857 649 c-54 -13 -75 -26 -91 -58 -19 -35 -13 -41 35 -41 27 0 41
5 48 19 20 36 110 52 168 30 30 -11 43 -26 43 -50 0 -13 -17 -17 -97 -22 -54
-3 -115 -12 -136 -18 -83 -27 -112 -97 -61 -144 49 -45 155 -53 272 -19 13 4
22 2 22 -5 0 -6 19 -11 45 -11 l45 0 0 120 c0 152 -9 173 -82 195 -56 16 -151
18 -211 4z m201 -201 c-2 -24 -11 -37 -37 -52 -40 -23 -140 -28 -165 -7 -23
20 -20 56 7 69 38 18 50 20 125 21 l73 1 -3 -32z"/>
<path d="M1310 490 l0 -160 50 0 50 0 0 160 0 160 -50 0 -50 0 0 -160z"/>
<path d="M805 250 c-10 -16 3 -28 36 -35 38 -9 32 -30 -9 -30 -16 0 -28 -3
-25 -7 7 -13 48 -9 68 5 23 18 14 33 -26 41 -22 4 -30 10 -25 21 6 17 -9 21
-19 5z"/>
<path d="M1178 249 c-22 -12 -23 -42 -4 -58 8 -7 31 -14 53 -16 35 -4 35 -4 7
4 -17 4 -36 11 -42 15 -20 12 -13 46 11 56 12 5 15 9 7 9 -8 0 -23 -4 -32 -10z"/>
<path d="M1268 250 c24 -10 29 -39 10 -58 -7 -7 -8 -12 -2 -12 16 0 34 22 34
42 0 18 -28 38 -52 37 -7 0 -3 -4 10 -9z"/>
<path d="M1590 214 c0 -27 4 -43 10 -39 6 3 10 12 10 20 0 8 14 15 33 18 l32
4 -32 1 c-21 1 -33 7 -33 16 0 9 13 16 33 19 28 3 26 4 -10 5 l-43 2 0 -46z"/>
<path d="M1962 253 c24 -4 27 -10 31 -46 l4 -42 1 42 c2 37 5 42 30 46 15 2 0
4 -33 4 -33 0 -48 -2 -33 -4z"/>
<path d="M2333 220 c29 -53 44 -57 64 -15 20 43 27 43 43 6 14 -34 34 -45 48
-28 20 26 42 77 32 77 -5 0 -18 -17 -29 -37 l-19 -38 -18 38 c-10 20 -24 37
-31 37 -7 0 -21 -17 -32 -37 l-19 -38 -18 38 c-10 20 -23 37 -30 37 -8 0 -5
-13 9 -40z"/>
<path d="M2806 220 c-14 -22 -26 -42 -26 -46 0 -13 32 20 46 48 8 15 18 28 22
28 4 0 17 -18 30 -40 13 -22 27 -38 32 -35 13 8 -42 84 -61 85 -9 0 -28 -18
-43 -40z"/>
<path d="M3190 221 c0 -22 5 -43 10 -46 6 -3 10 3 10 14 0 28 37 28 67 -1 13
-12 23 -17 23 -11 0 6 -7 16 -15 23 -11 9 -12 16 -4 26 18 22 1 34 -47 34
l-44 0 0 -39z m78 17 c-7 -20 -58 -23 -58 -4 0 11 10 16 31 16 20 0 29 -4 27
-12z"/>
<path d="M3580 220 c0 -34 4 -41 24 -46 14 -3 33 -4 43 -1 10 3 4 5 -14 6 -31
1 -33 3 -33 35 0 32 3 35 33 39 28 3 26 4 -10 5 l-43 2 0 -40z"/>
</g>
</svg>
