<?xml version="1.0" standalone="no"?>
<!DOCTYPE svg PUBLIC "-//W3C//DTD SVG 20010904//EN"
 "http://www.w3.org/TR/2001/REC-SVG-20010904/DTD/svg10.dtd">
<svg version="1.0" xmlns="http://www.w3.org/2000/svg"
 width="4168.000000pt" height="974.000000pt" viewBox="0 0 4168.000000 974.000000"
 preserveAspectRatio="xMidYMid meet">

<g transform="translate(0.000000,974.000000) scale(0.100000,-0.100000)"
fill="#000000" stroke="none">
<path d="M24620 6585 l0 -405 -185 0 -185 0 0 -290 0 -290 173 1 c94 0 179 0
187 0 13 -1 15 -102 15 -844 0 -756 2 -851 18 -934 61 -329 232 -519 532 -595
81 -21 113 -23 305 -22 198 0 223 3 311 26 113 31 245 84 271 110 17 17 18 39
18 284 0 249 -1 266 -17 261 -10 -3 -54 -19 -98 -35 -112 -41 -202 -55 -330
-51 -96 4 -117 8 -167 32 -76 37 -124 94 -148 177 -19 62 -20 103 -23 828 -2
672 0 762 13 762 8 0 186 2 395 3 l380 2 0 285 0 285 -392 3 -393 2 0 405 0
405 -340 0 -340 0 0 -405z"/>
<path d="M9494 6790 c-159 -51 -356 -237 -566 -535 -104 -148 -311 -478 -430
-685 -248 -431 -350 -723 -318 -907 6 -36 20 -84 31 -106 25 -48 103 -134 141
-153 l27 -14 42 72 c431 749 715 1123 949 1247 272 145 507 10 822 -474 130
-198 305 -509 447 -793 l62 -123 31 18 c17 10 55 40 84 66 157 143 159 384 4
773 -59 146 -131 292 -291 591 -461 856 -727 1120 -1035 1023z"/>
<path d="M16006 6225 c-258 -53 -458 -189 -658 -445 l-27 -35 -1 218 0 217
-335 0 -335 0 0 -1465 0 -1465 335 0 334 0 3 913 c3 905 4 913 25 990 69 244
233 412 451 463 100 24 274 15 366 -19 158 -58 262 -166 324 -336 51 -142 52
-158 52 -1118 l0 -893 335 0 335 0 0 828 c0 455 5 872 10 926 26 269 140 463
325 558 105 53 153 63 305 63 115 0 145 -3 203 -23 164 -57 276 -174 336 -351
48 -142 51 -195 51 -1128 l0 -873 335 0 336 0 -4 1048 c-3 1025 -4 1049 -24
1140 -57 249 -142 412 -284 548 -118 111 -238 176 -408 221 -133 35 -385 44
-528 18 -278 -50 -507 -184 -707 -415 l-69 -79 -36 61 c-50 84 -134 183 -211
246 -79 64 -237 143 -345 173 -104 28 -383 36 -489 14z"/>
<path d="M24035 6230 c-334 -44 -609 -252 -784 -594 l-51 -99 0 321 0 322
-340 0 -340 0 2 -1462 3 -1463 338 -3 337 -2 0 641 c0 528 3 660 16 746 46
311 177 557 372 702 149 109 307 165 520 184 l132 11 0 353 0 353 -72 -1 c-40
-1 -100 -5 -133 -9z"/>
<path d="M30447 6220 c-309 -56 -573 -195 -797 -420 -120 -119 -211 -242 -277
-374 -356 -707 -143 -1570 492 -1993 270 -180 585 -264 935 -250 343 14 618
111 865 306 85 66 245 221 245 235 0 6 -88 99 -197 208 l-196 196 -81 -71
c-104 -93 -164 -136 -256 -186 -315 -169 -692 -138 -965 79 -332 264 -440 792
-245 1207 115 245 311 411 560 474 73 19 103 21 229 16 165 -6 246 -24 364
-84 106 -53 181 -107 274 -197 48 -45 87 -75 92 -70 4 5 96 105 205 221 108
117 196 217 196 222 0 5 -45 52 -101 105 -203 193 -431 312 -706 367 -159 32
-485 36 -636 9z"/>
<path d="M33155 6224 c-527 -89 -945 -459 -1114 -987 -63 -196 -75 -280 -75
-527 -1 -209 1 -234 27 -354 99 -460 366 -814 766 -1016 103 -51 253 -102 391
-131 89 -19 137 -23 315 -23 180 -1 226 3 323 22 221 44 427 132 593 253 82
60 279 247 279 265 0 5 -48 52 -107 104 -59 52 -147 130 -195 173 l-87 78 -58
-54 c-233 -213 -484 -308 -782 -294 -342 16 -601 192 -731 497 -26 62 -70 213
-70 243 0 4 486 7 1079 7 l1079 0 8 98 c9 124 -9 351 -41 508 -77 380 -266
698 -534 899 -162 122 -371 208 -582 239 -129 19 -372 19 -484 0z m424 -554
c274 -76 459 -292 532 -619 10 -47 19 -96 19 -108 l0 -23 -751 0 -752 0 7 55
c16 135 104 338 196 452 96 119 229 205 374 243 102 27 277 27 375 0z"/>
<path d="M12946 6219 c-260 -38 -512 -168 -648 -336 -133 -163 -189 -327 -189
-548 0 -140 20 -239 70 -340 54 -108 116 -182 213 -255 148 -112 309 -181 678
-291 414 -122 540 -191 595 -322 33 -80 9 -196 -56 -270 -78 -90 -208 -131
-404 -130 -266 2 -554 100 -836 284 -60 39 -111 70 -113 68 -2 -2 -69 -104
-149 -226 l-146 -222 37 -29 c67 -53 208 -140 308 -190 425 -212 904 -275
1299 -171 187 48 324 126 450 253 142 144 214 303 234 516 33 355 -96 593
-421 776 -110 62 -219 105 -529 209 -366 123 -460 165 -539 243 -66 65 -86
115 -77 195 7 59 51 142 92 172 156 117 390 125 700 24 115 -37 356 -147 415
-189 l29 -21 14 23 c29 45 248 443 250 452 3 13 -160 107 -272 157 -189 83
-371 137 -562 164 -112 16 -347 18 -443 4z"/>
<path d="M20605 6224 c-22 -2 -91 -9 -153 -15 -218 -21 -437 -77 -672 -171
-69 -28 -126 -52 -127 -53 -4 -2 166 -508 176 -524 7 -11 29 -6 118 27 447
168 881 186 1153 50 78 -40 184 -141 223 -215 37 -69 63 -177 72 -297 l7 -99
-23 6 c-13 2 -76 19 -139 36 -196 53 -364 73 -620 74 -302 2 -482 -28 -684
-114 -164 -70 -338 -213 -414 -342 -161 -271 -171 -641 -26 -918 124 -236 386
-407 712 -465 116 -20 340 -20 467 1 170 27 342 95 480 188 33 23 99 79 147
125 l88 85 0 -177 0 -176 336 0 335 0 -4 963 c-4 1017 -4 1016 -53 1205 -49
188 -129 335 -253 465 -163 170 -389 278 -673 322 -101 15 -394 27 -473 19z
m465 -1643 c106 -18 244 -54 314 -81 l29 -11 -6 -142 c-4 -103 -11 -160 -26
-208 -62 -197 -257 -359 -506 -421 -120 -29 -347 -32 -445 -5 -163 44 -283
134 -336 250 -26 56 -29 72 -29 172 0 103 2 114 32 177 73 155 215 246 443
283 116 20 378 13 530 -14z"/>
<path d="M27445 6223 c-270 -21 -433 -51 -626 -113 -108 -34 -316 -114 -328
-126 -5 -4 169 -516 179 -527 4 -5 57 9 116 32 227 84 412 124 634 136 423 22
699 -124 787 -417 8 -29 18 -104 22 -166 6 -110 5 -113 -14 -109 -11 3 -72 19
-135 35 -319 83 -689 103 -983 52 -438 -75 -720 -291 -826 -634 -34 -109 -47
-268 -33 -391 23 -207 98 -371 231 -506 197 -199 466 -300 806 -300 362 -1
635 105 878 339 l77 75 0 -176 0 -177 330 0 330 0 0 951 c0 808 -2 967 -16
1056 -75 507 -362 818 -854 927 -171 37 -402 53 -575 39z m355 -1628 c147 -18
233 -35 353 -71 l87 -27 0 -146 c-1 -165 -16 -228 -80 -335 -127 -210 -430
-342 -745 -323 -260 16 -438 129 -500 316 -24 73 -17 213 15 296 31 80 129
179 220 223 162 76 383 99 650 67z"/>
<path d="M8186 6106 c-196 -83 -416 -318 -673 -721 -266 -417 -447 -741 -533
-954 -122 -303 -119 -495 11 -636 105 -114 325 -191 655 -230 336 -39 1165
-46 1414 -11 379 53 559 179 586 410 l6 53 -423 6 c-523 7 -719 25 -965 87
-350 88 -488 260 -440 544 36 217 146 457 419 911 66 110 162 265 214 344 107
163 106 151 13 193 -31 15 -72 22 -135 25 -78 3 -98 1 -149 -21z"/>
<path d="M9535 5421 c-11 -5 -23 -7 -27 -4 -4 2 -32 -8 -63 -21 l-55 -26 30
-47 c16 -27 34 -58 40 -70 5 -13 14 -23 20 -23 5 0 9 -3 8 -7 -2 -11 23 -63
43 -91 12 -15 19 -18 22 -10 3 7 4 0 4 -17 -2 -20 2 -29 11 -27 8 1 12 -3 10
-10 -6 -18 99 -214 112 -210 7 1 9 -2 5 -8 -3 -5 -1 -19 5 -31 9 -15 15 -18
23 -10 6 6 16 11 22 11 5 0 2 -5 -7 -11 -24 -14 -23 -34 5 -60 12 -12 17 -19
10 -15 -8 4 -8 0 0 -18 7 -13 16 -22 21 -19 5 4 6 1 2 -5 -3 -6 5 -32 18 -57
13 -26 26 -43 28 -39 3 5 3 3 1 -5 -2 -7 1 -19 5 -25 5 -6 17 -33 27 -59 11
-28 23 -46 30 -43 6 2 12 -2 12 -10 0 -7 -4 -11 -8 -8 -5 3 4 -24 20 -59 16
-35 32 -78 36 -95 3 -18 11 -34 16 -37 5 -4 9 -15 9 -26 0 -10 4 -19 8 -19 5
0 9 -14 9 -31 0 -17 4 -34 9 -37 5 -4 10 -18 12 -32 4 -44 8 -59 15 -66 4 -4
7 1 8 12 0 18 1 18 9 -1 7 -16 9 -12 11 20 1 26 3 32 6 16 7 -34 -5 -71 -20
-65 -10 3 -11 -13 -6 -78 8 -90 -2 -202 -21 -237 -6 -13 -9 -29 -6 -37 3 -7 2
-13 -3 -11 -11 3 -90 -103 -87 -117 2 -6 1 -8 -1 -3 -8 12 -20 8 -73 -28 -29
-19 -58 -35 -66 -35 -17 0 -18 -12 -2 -28 15 -15 0 -16 -37 -2 -16 6 -24 6
-20 0 3 -5 -4 -14 -15 -20 -13 -7 -20 -7 -20 0 0 5 5 10 12 10 6 0 9 3 6 6 -3
3 -26 0 -49 -7 -24 -7 -47 -13 -51 -15 -5 -1 -11 -3 -15 -4 -5 -1 -12 -2 -17
-1 -5 1 -17 -6 -27 -15 -13 -12 -19 -13 -19 -4 0 8 -8 10 -27 6 -37 -9 -100
-16 -141 -16 -18 0 -31 -4 -28 -8 2 -4 -46 -8 -107 -9 -333 -1 -499 -6 -462
-13 l40 -8 -45 4 c-25 2 -70 8 -100 13 -76 13 -260 14 -240 1 21 -13 11 -12
-41 4 -24 8 -81 16 -126 18 l-81 3 -1 -50 c0 -27 5 -55 10 -61 6 -7 9 -18 8
-26 -4 -32 2 -47 16 -42 9 4 15 0 15 -10 0 -9 -6 -16 -12 -16 -9 0 -8 -3 2 -9
8 -6 19 -7 25 -3 5 3 4 -2 -4 -11 -12 -15 -9 -21 11 -18 4 0 5 -6 2 -14 -4 -9
0 -15 10 -15 9 0 16 -6 16 -13 0 -14 31 -47 44 -47 4 0 4 5 0 12 -4 7 -3 8 5
4 6 -4 9 -11 7 -15 -5 -8 31 -38 73 -60 19 -11 22 -11 16 1 -4 7 2 3 14 -9 12
-13 29 -23 37 -23 8 0 28 -7 43 -15 30 -15 73 -26 106 -28 11 0 23 -5 26 -10
4 -5 23 -9 43 -10 20 -1 36 -5 36 -10 0 -6 18 -7 43 -3 29 4 38 3 27 -4 -22
-14 1 -12 50 5 50 18 53 18 45 5 -3 -5 -15 -10 -26 -10 -10 0 -19 -4 -19 -10
0 -5 17 -9 38 -9 20 0 66 -4 102 -9 36 -6 121 -12 190 -15 70 -3 105 -2 80 2
l-45 8 55 1 c33 1 61 -3 69 -10 17 -18 826 -17 961 0 130 17 210 34 210 45 0
5 7 7 15 4 25 -10 113 22 133 48 11 13 22 22 26 18 3 -3 -2 -12 -12 -20 -9 -8
12 1 48 21 36 19 82 52 103 73 46 45 91 119 83 138 -3 8 0 15 6 17 6 2 12 24
13 48 2 25 6 61 10 80 6 33 6 34 -9 16 -15 -19 -16 -19 -16 8 0 17 4 25 11 20
13 -7 5 96 -12 161 -20 77 -52 170 -60 179 -5 6 -9 18 -9 27 0 13 -6 16 -22
12 -23 -5 -23 -5 -3 10 20 15 20 16 -10 48 -16 18 -24 29 -17 25 8 -5 12 0 12
15 0 18 -2 19 -15 9 -9 -8 -15 -9 -15 -2 0 6 4 13 10 17 14 9 0 35 -19 35 -11
0 -12 3 -4 8 9 6 -1 35 -36 107 -26 54 -50 95 -53 89 -3 -5 -3 -3 -2 4 5 19
-18 62 -29 55 -6 -3 -7 -2 -4 4 10 15 -32 95 -45 87 -7 -4 -8 -3 -4 5 4 6 -7
40 -24 74 -36 69 -56 95 -48 61 3 -12 2 -28 -3 -35 -5 -9 -7 3 -6 29 2 28 -2
42 -10 42 -7 0 -17 10 -24 21 -8 15 -8 19 0 15 15 -10 14 -3 -6 38 -9 19 -20
33 -25 30 -4 -3 -6 1 -3 8 3 7 -11 35 -30 62 -19 27 -35 54 -35 59 0 5 -8 16
-17 24 -10 8 -12 12 -6 8 7 -3 -3 21 -23 54 -20 34 -41 58 -46 55 -5 -3 -8 0
-7 7 5 28 -47 113 -62 103 -5 -3 -7 1 -4 8 3 7 -5 24 -16 38 l-20 25 12 -25
c9 -20 9 -23 -1 -13 -7 6 -13 20 -14 31 0 10 -9 30 -18 43 -83 115 -103 139
-115 139 -7 0 -12 4 -11 8 2 4 -19 32 -46 62 -27 30 -45 48 -40 40 5 -9 -4 -1
-19 17 -16 18 -36 33 -44 33 -8 0 -11 5 -8 10 3 6 -1 10 -9 10 -9 0 -16 4 -16
8 0 14 -117 65 -130 57 -8 -5 -11 -4 -7 2 13 20 -105 31 -148 14z m-15 -33 c0
-6 -6 -5 -15 2 -8 7 -15 14 -15 16 0 2 7 1 15 -2 8 -4 15 -11 15 -16z m-56 -8
c-12 -5 -24 -13 -27 -18 -10 -14 4 -52 19 -52 16 0 37 -36 30 -53 -2 -7 -5 -5
-5 5 -1 9 -12 25 -25 35 -32 24 -41 57 -21 77 9 9 24 16 33 15 13 0 12 -2 -4
-9z m263 4 c-3 -3 -12 -4 -19 -1 -8 3 -5 6 6 6 11 1 17 -2 13 -5z m40 -29 c-6
-7 -19 -10 -27 -7 -12 5 -12 7 3 10 9 2 15 8 12 13 -3 5 1 6 9 3 12 -5 13 -9
3 -19z m33 -5 c0 -5 -5 -10 -11 -10 -5 0 -7 5 -4 10 3 6 8 10 11 10 2 0 4 -4
4 -10z m-290 -34 c0 -3 -4 -8 -10 -11 -5 -3 -10 -1 -10 4 0 6 5 11 10 11 6 0
10 -2 10 -4z m370 -37 c0 -4 -9 -7 -19 -6 -14 1 -17 5 -11 13 6 6 6 15 2 20
-4 4 1 2 11 -5 9 -7 17 -17 17 -22z m80 -64 c19 -22 8 -25 -12 -3 -10 10 -14
18 -9 18 5 0 14 -7 21 -15z m-427 -51 c-7 -19 -10 -18 -16 5 -3 13 -1 18 9 14
7 -2 10 -11 7 -19z m35 2 c-7 -8 -15 -12 -17 -11 -5 6 10 25 20 25 5 0 4 -6
-3 -14z m22 -38 c0 -18 -2 -20 -9 -8 -6 8 -7 18 -5 22 9 14 14 9 14 -14z m450
-3 c14 -19 14 -19 -2 -6 -10 7 -18 18 -18 24 0 6 1 8 3 6 1 -2 9 -13 17 -24z
m-15 -15 c3 -5 1 -10 -4 -10 -6 0 -11 5 -11 10 0 6 2 10 4 10 3 0 8 -4 11 -10z
m105 -114 c-1 -6 -9 -1 -19 11 -10 12 -22 19 -26 15 -5 -4 -5 -1 -1 6 6 11 12
10 27 -4 10 -9 19 -22 19 -28z m-497 9 c-3 -9 -8 -14 -10 -11 -3 3 -2 9 2 15
9 16 15 13 8 -4z m44 -17 c-3 -8 -6 -5 -6 6 -1 11 2 17 5 13 3 -3 4 -12 1 -19z
m454 -35 c13 -16 12 -17 -3 -4 -10 7 -18 15 -18 17 0 8 8 3 21 -13z m-458 -14
c-6 -6 -9 -19 -6 -28 4 -13 3 -14 -5 -1 -10 14 1 40 16 40 3 0 1 -5 -5 -11z
m537 -69 c0 -5 -5 -10 -11 -10 -5 0 -7 5 -4 10 3 6 8 10 11 10 2 0 4 -4 4 -10z
m-482 -35 c-3 -3 -9 2 -12 12 -6 14 -5 15 5 6 7 -7 10 -15 7 -18z m564 -92
c10 -9 18 -23 17 -32 0 -11 -4 -9 -11 7 -7 13 -17 21 -25 18 -7 -3 -13 1 -13
9 0 19 9 19 32 -2z m35 -95 c-3 -8 -6 -5 -6 6 -1 11 2 17 5 13 3 -3 4 -12 1
-19z m43 -42 c0 -6 -7 -1 -15 10 -8 10 -15 23 -15 28 0 6 7 1 15 -10 8 -10 15
-23 15 -28z m-545 24 c3 -5 1 -10 -4 -10 -6 0 -11 5 -11 10 0 6 2 10 4 10 3 0
8 -4 11 -10z m560 -50 c3 -5 1 -10 -4 -10 -6 0 -11 5 -11 10 0 6 2 10 4 10 3
0 8 -4 11 -10z m-477 -65 c-3 -3 -9 2 -12 12 -6 14 -5 15 5 6 7 -7 10 -15 7
-18z m-28 5 c0 -5 -5 -10 -11 -10 -5 0 -7 5 -4 10 3 6 8 10 11 10 2 0 4 -4 4
-10z m546 -38 c0 -10 -6 -19 -13 -19 -8 0 -9 6 -2 19 5 10 11 18 12 18 2 0 3
-8 3 -18z m-466 -138 c0 -8 -4 -12 -10 -9 -5 3 -10 10 -10 16 0 5 5 9 10 9 6
0 10 -7 10 -16z m564 -16 c-4 -6 -10 -5 -15 3 -7 12 -9 12 -9 0 0 -8 -2 -12
-5 -9 -3 3 -3 13 1 22 5 13 9 14 20 5 8 -6 11 -16 8 -21z m-547 -24 c-3 -3
-12 -4 -19 -1 -8 3 -5 6 6 6 11 1 17 -2 13 -5z m10 -76 c-3 -8 -6 -5 -6 6 -1
11 2 17 5 13 3 -3 4 -12 1 -19z m603 -18 c0 -5 -2 -10 -4 -10 -3 0 -8 5 -11
10 -3 6 -1 10 4 10 6 0 11 -4 11 -10z m74 -146 c3 -8 2 -12 -4 -9 -6 3 -10 1
-10 -6 0 -7 -2 -10 -5 -7 -5 5 4 38 10 38 2 0 6 -7 9 -16z m28 -72 c-4 -11 -6
-11 -13 0 -5 7 -9 19 -9 26 0 10 3 10 14 0 7 -7 11 -19 8 -26z m-626 -9 c-11
-11 -17 4 -9 23 7 18 8 18 11 1 2 -10 1 -21 -2 -24z m-19 -65 c-3 -7 -5 -2 -5
12 0 14 2 19 5 13 2 -7 2 -19 0 -25z m703 -43 c0 -12 -19 -12 -23 0 -4 9 -1
12 9 8 7 -3 14 -7 14 -8z m-690 -130 c4 3 5 -5 2 -17 -6 -21 -7 -21 -10 -4 -3
15 -6 16 -14 5 -8 -11 -9 -10 -4 4 3 10 7 26 7 35 1 10 4 8 6 -6 2 -12 8 -20
13 -17z m779 -100 c0 -5 -6 1 -14 15 -8 14 -14 30 -14 35 0 6 6 -1 14 -15 8
-14 14 -29 14 -35z m-32 -7 c-3 -8 -6 -5 -6 6 -1 11 2 17 5 13 3 -3 4 -12 1
-19z m53 -53 c0 -5 -5 -3 -10 5 -8 12 -10 12 -10 1 0 -8 -2 -12 -5 -9 -3 3 -2
13 1 22 5 14 9 15 15 4 5 -7 9 -17 9 -23z m-868 13 c-14 -14 -44 -20 -36 -7 3
5 9 7 14 4 5 -3 11 -1 15 5 3 5 9 10 13 10 3 0 1 -5 -6 -12z m-90 -89 c5 -3
-4 -6 -20 -6 -26 0 -27 2 -13 17 9 9 18 12 20 5 2 -5 8 -13 13 -16z m-77 -38
c-19 -8 -19 -8 0 -19 16 -9 17 -11 4 -12 -23 0 -44 26 -27 33 7 3 20 5 28 6 9
0 8 -3 -5 -8z m1062 -23 c-3 -7 -5 -2 -5 12 0 14 2 19 5 13 2 -7 2 -19 0 -25z
m-1220 -24 c-3 -3 -12 -4 -19 -1 -8 3 -5 6 6 6 11 1 17 -2 13 -5z m150 0 c-3
-3 -12 -4 -19 -1 -8 3 -5 6 6 6 11 1 17 -2 13 -5z m-320 -40 c-3 -3 -12 -4
-19 -1 -8 3 -5 6 6 6 11 1 17 -2 13 -5z m-80 -10 c-3 -3 -12 -4 -19 -1 -8 3
-5 6 6 6 11 1 17 -2 13 -5z m143 -4 c0 -17 -22 -22 -36 -9 -11 12 -9 14 11 15
14 1 25 -2 25 -6z m-387 -7 c-7 -2 -19 -2 -25 0 -7 3 -2 5 12 5 14 0 19 -2 13
-5z m60 0 c-7 -2 -19 -2 -25 0 -7 3 -2 5 12 5 14 0 19 -2 13 -5z m132 -3 c-3
-5 -14 -10 -23 -9 -14 0 -13 2 3 9 27 11 27 11 20 0z m111 1 c-6 -9 -46 -22
-46 -15 0 3 10 9 23 14 29 11 29 11 23 1z m-878 -8 c-16 -2 -40 -2 -55 0 -16
2 -3 4 27 4 30 0 43 -2 28 -4z m425 0 c-13 -2 -33 -2 -45 0 -13 2 -3 4 22 4
25 0 35 -2 23 -4z m-750 -10 c-7 -2 -19 -2 -25 0 -7 3 -2 5 12 5 14 0 19 -2
13 -5z m74 1 c-3 -3 -12 -4 -19 -1 -8 3 -5 6 6 6 11 1 17 -2 13 -5z m-117 -14
c0 -5 -4 -10 -10 -10 -5 0 -10 5 -10 10 0 6 5 10 10 10 6 0 10 -4 10 -10z
m-40 -21 c0 -6 -4 -7 -10 -4 -5 3 -10 11 -10 16 0 6 5 7 10 4 6 -3 10 -11 10
-16z m2697 -41 c-3 -7 -5 -2 -5 12 0 14 2 19 5 13 2 -7 2 -19 0 -25z m-2667
13 c0 -5 -6 -14 -14 -20 -12 -10 -13 -8 -9 8 5 21 23 30 23 12z m47 -123 c-3
-8 -6 -5 -6 6 -1 11 2 17 5 13 3 -3 4 -12 1 -19z m53 12 c0 -5 -2 -10 -4 -10
-3 0 -8 5 -11 10 -3 6 -1 10 4 10 6 0 11 -4 11 -10z m2520 -21 c0 -5 -4 -9
-10 -9 -5 0 -10 7 -10 16 0 8 5 12 10 9 6 -3 10 -10 10 -16z m-2523 -25 c-3
-3 -12 -4 -19 -1 -8 3 -5 6 6 6 11 1 17 -2 13 -5z m2516 -18 c3 -8 -4 -22 -16
-33 -22 -18 -22 -18 -6 2 9 11 14 26 12 33 -6 17 4 15 10 -2z m-2470 -18 c-2
-5 -13 -8 -23 -8 -10 0 -21 3 -23 8 -3 4 8 7 23 7 15 0 26 -3 23 -7z m-3 -38
c8 -5 12 -11 10 -14 -3 -2 -14 2 -24 10 -22 15 -10 19 14 4z m2400 -34 c0 -2
-10 -11 -23 -19 -19 -12 -24 -13 -24 -2 0 8 3 12 7 10 3 -2 12 0 20 6 17 10
20 11 20 5z m-2260 -26 l-25 -8 25 -2 c18 -2 20 -4 7 -7 -10 -3 -24 1 -32 7
-8 6 -20 8 -26 4 -7 -4 -9 -3 -6 3 3 5 23 10 44 10 33 1 35 0 13 -7z m427 -56
c-3 -3 -12 -4 -19 -1 -8 3 -5 6 6 6 11 1 17 -2 13 -5z m1657 -9 c-10 -8 -26
-14 -34 -14 -9 0 -4 6 10 14 33 19 49 19 24 0z m-1824 -5 c0 -5 -7 -7 -15 -4
-8 4 -15 8 -15 10 0 2 7 4 15 4 8 0 15 -4 15 -10z m1756 1 c-3 -5 -16 -11 -28
-14 -22 -6 -22 -5 -4 8 22 17 40 20 32 6z m-1669 -7 c-3 -3 -12 -4 -19 -1 -8
3 -5 6 6 6 11 1 17 -2 13 -5z m113 -4 c0 -5 -5 -10 -11 -10 -5 0 -7 5 -4 10 3
6 8 10 11 10 2 0 4 -4 4 -10z m1483 -17 c-7 -2 -21 -2 -30 0 -10 3 -4 5 12 5
17 0 24 -2 18 -5z m-1060 -40 c-7 -2 -21 -2 -30 0 -10 3 -4 5 12 5 17 0 24 -2
18 -5z m134 1 c-3 -3 -12 -4 -19 -1 -8 3 -5 6 6 6 11 1 17 -2 13 -5z m146 -1
c-13 -2 -35 -2 -50 0 -16 2 -5 4 22 4 28 0 40 -2 28 -4z m90 0 c-7 -2 -19 -2
-25 0 -7 3 -2 5 12 5 14 0 19 -2 13 -5z m200 -10 c-7 -2 -19 -2 -25 0 -7 3 -2
5 12 5 14 0 19 -2 13 -5z"/>
<path d="M9730 3466 c0 -2 7 -7 16 -10 8 -3 12 -2 9 4 -6 10 -25 14 -25 6z"/>
</g>
</svg>
